<svg xmlns="http://www.w3.org/2000/svg" xmlns:xlink="http://www.w3.org/1999/xlink" xmlns:lucid="lucid" width="1040" height="633"><g transform="translate(-136 -385)" lucid:page-tab-id="0_0"><path d="M0 0h1360v1760H0z" fill="#fff"/><path d="M500 569.67h340v360.66H500z" stroke="#000" stroke-opacity="0" stroke-width="2" fill="#fff" fill-opacity="0"/><use xlink:href="#a" transform="matrix(1,0,0,1,505,574.6666666666666) translate(0 24.940104166666657)"/><use xlink:href="#b" transform="matrix(1,0,0,1,505,574.6666666666666) translate(26.671006944444443 24.940104166666657)"/><use xlink:href="#c" transform="matrix(1,0,0,1,505,574.6666666666666) translate(93.34852430555556 24.940104166666657)"/><use xlink:href="#d" transform="matrix(1,0,0,1,505,574.6666666666666) translate(253.37456597222229 24.940104166666657)"/><use xlink:href="#e" transform="matrix(1,0,0,1,505,574.6666666666666) translate(0 54.16232638888888)"/><use xlink:href="#f" transform="matrix(1,0,0,1,505,574.6666666666666) translate(53.342013888888886 54.16232638888888)"/><use xlink:href="#g" transform="matrix(1,0,0,1,505,574.6666666666666) translate(80.01302083333333 54.16232638888888)"/><use xlink:href="#h" transform="matrix(1,0,0,1,505,574.6666666666666) translate(36.01 83.3845486111111)"/><use xlink:href="#i" transform="matrix(1,0,0,1,505,574.6666666666666) translate(72.01 83.3845486111111)"/><use xlink:href="#j" transform="matrix(1,0,0,1,505,574.6666666666666) translate(85.34550347222222 83.3845486111111)"/><use xlink:href="#k" transform="matrix(1,0,0,1,505,574.6666666666666) translate(0 112.60677083333331)"/><use xlink:href="#e" transform="matrix(1,0,0,1,505,574.6666666666666) translate(0 141.82899305555554)"/><use xlink:href="#l" transform="matrix(1,0,0,1,505,574.6666666666666) translate(53.342013888888886 141.82899305555554)"/><use xlink:href="#m" transform="matrix(1,0,0,1,505,574.6666666666666) translate(80.01302083333333 141.82899305555554)"/><use xlink:href="#h" transform="matrix(1,0,0,1,505,574.6666666666666) translate(36.01 171.05121527777777)"/><use xlink:href="#i" transform="matrix(1,0,0,1,505,574.6666666666666) translate(72.01 171.05121527777777)"/><use xlink:href="#n" transform="matrix(1,0,0,1,505,574.6666666666666) translate(85.34550347222222 171.05121527777777)"/><use xlink:href="#e" transform="matrix(1,0,0,1,505,574.6666666666666) translate(0 200.2734375)"/><use xlink:href="#o" transform="matrix(1,0,0,1,505,574.6666666666666) translate(53.342013888888886 200.2734375)"/><use xlink:href="#p" transform="matrix(1,0,0,1,505,574.6666666666666) translate(0 229.49565972222223)"/><use xlink:href="#q" transform="matrix(1,0,0,1,505,574.6666666666666) translate(53.342013888888886 229.49565972222223)"/><use xlink:href="#p" transform="matrix(1,0,0,1,505,574.6666666666666) translate(0 258.71788194444446)"/><use xlink:href="#q" transform="matrix(1,0,0,1,505,574.6666666666666) translate(53.342013888888886 258.71788194444446)"/><use xlink:href="#r" transform="matrix(1,0,0,1,505,574.6666666666666) translate(0 287.94010416666663)"/><use xlink:href="#s" transform="matrix(1,0,0,1,505,574.6666666666666) translate(53.342013888888886 287.94010416666663)"/><use xlink:href="#g" transform="matrix(1,0,0,1,505,574.6666666666666) translate(80.01302083333333 287.94010416666663)"/><use xlink:href="#h" transform="matrix(1,0,0,1,505,574.6666666666666) translate(36.01 317.1623263888889)"/><use xlink:href="#i" transform="matrix(1,0,0,1,505,574.6666666666666) translate(72.01 317.1623263888889)"/><use xlink:href="#t" transform="matrix(1,0,0,1,505,574.6666666666666) translate(85.34550347222222 317.1623263888889)"/><use xlink:href="#u" transform="matrix(1,0,0,1,505,574.6666666666666) translate(205.36503472222225 317.1623263888889)"/><use xlink:href="#v" transform="matrix(1,0,0,1,505,574.6666666666666) translate(0 346.3845486111111)"/><path d="M514 482h91v35h-91z" stroke="#000" stroke-opacity="0" stroke-width="2" fill="#fff" fill-opacity="0"/><use xlink:href="#w" transform="matrix(1,0,0,1,519,487) translate(4.499999999999993 16.055555555555557)"/><path d="M621 445h93v35h-93z" stroke="#000" stroke-opacity="0" stroke-width="2" fill="#fff" fill-opacity="0"/><use xlink:href="#x" transform="matrix(1,0,0,1,626,450) translate(-6.327160493827165 16.055555555555557)"/><path d="M156 434.17h261V536H156z" stroke="#000" stroke-opacity="0" stroke-width="2" fill="#fff" fill-opacity="0"/><use xlink:href="#y" transform="matrix(1,0,0,1,161,439.16666666666663) translate(4.5864197530864175 17.55555555555555)"/><use xlink:href="#z" transform="matrix(1,0,0,1,161,439.16666666666663) translate(40.092592592592595 17.55555555555555)"/><use xlink:href="#A" transform="matrix(1,0,0,1,161,439.16666666666663) translate(83.54938271604938 17.55555555555555)"/><use xlink:href="#B" transform="matrix(1,0,0,1,161,439.16666666666663) translate(103.30246913580247 17.55555555555555)"/><use xlink:href="#C" transform="matrix(1,0,0,1,161,439.16666666666663) translate(118.11728395061728 17.55555555555555)"/><use xlink:href="#D" transform="matrix(1,0,0,1,161,439.16666666666663) translate(160.58641975308643 17.55555555555555)"/><use xlink:href="#E" transform="matrix(1,0,0,1,161,439.16666666666663) translate(9.54938271604938 38.888888888888886)"/><use xlink:href="#F" transform="matrix(1,0,0,1,161,439.16666666666663) translate(57.895061728395056 38.888888888888886)"/><use xlink:href="#G" transform="matrix(1,0,0,1,161,439.16666666666663) translate(82.58641975308642 38.888888888888886)"/><use xlink:href="#H" transform="matrix(1,0,0,1,161,439.16666666666663) translate(112.21604938271605 38.888888888888886)"/><use xlink:href="#I" transform="matrix(1,0,0,1,161,439.16666666666663) translate(150.73456790123458 38.888888888888886)"/><use xlink:href="#J" transform="matrix(1,0,0,1,161,439.16666666666663) translate(188.16666666666669 38.888888888888886)"/><use xlink:href="#K" transform="matrix(1,0,0,1,161,439.16666666666663) translate(202.98148148148147 38.888888888888886)"/><use xlink:href="#L" transform="matrix(1,0,0,1,161,439.16666666666663) translate(12.512345679012327 60.22222222222222)"/><use xlink:href="#M" transform="matrix(1,0,0,1,161,439.16666666666663) translate(37.20370370370369 60.22222222222222)"/><use xlink:href="#N" transform="matrix(1,0,0,1,161,439.16666666666663) translate(110.24074074074073 60.22222222222222)"/><use xlink:href="#O" transform="matrix(1,0,0,1,161,439.16666666666663) translate(146.6851851851852 60.22222222222222)"/><use xlink:href="#P" transform="matrix(1,0,0,1,161,439.16666666666663) translate(166.43827160493828 60.22222222222222)"/><use xlink:href="#Q" transform="matrix(1,0,0,1,161,439.16666666666663) translate(208.85802469135805 60.22222222222222)"/><use xlink:href="#R" transform="matrix(1,0,0,1,161,439.16666666666663) translate(101.79629629629629 81.55555555555556)"/><path d="M209 405h144v38H209z" stroke="#000" stroke-opacity="0" stroke-width="2" fill="#fff" fill-opacity="0"/><use xlink:href="#S" transform="matrix(1,0,0,1,214,410) translate(13.30555555555555 18)"/><path d="M209 683h148v53.92H209z" stroke="#000" stroke-opacity="0" stroke-width="2" fill="#fff" fill-opacity="0"/><use xlink:href="#T" transform="matrix(1,0,0,1,214,688) translate(22.703703703703702 14.888888888888888)"/><use xlink:href="#U" transform="matrix(1,0,0,1,214,688) translate(98.60493827160494 14.888888888888888)"/><use xlink:href="#V" transform="matrix(1,0,0,1,214,688) translate(9.370370370370367 36.22222222222222)"/><use xlink:href="#W" transform="matrix(1,0,0,1,214,688) translate(66.55555555555556 36.22222222222222)"/><path d="M465 960h200v38H465z" stroke="#000" stroke-opacity="0" stroke-width="2" fill="#fff" fill-opacity="0"/><use xlink:href="#X" transform="matrix(1,0,0,1,470,965) translate(25.5432098765432 17.555555555555557)"/><use xlink:href="#Y" transform="matrix(1,0,0,1,470,965) translate(79.71604938271605 17.555555555555557)"/><use xlink:href="#Z" transform="matrix(1,0,0,1,470,965) translate(104.4074074074074 17.555555555555557)"/><path d="M909 756.17h247V897H909z" stroke="#000" stroke-opacity="0" stroke-width="2" fill="#fff" fill-opacity="0"/><use xlink:href="#aa" transform="matrix(1,0,0,1,914,761.1666666666665) translate(9.95679012345677 15.722222222222209)"/><use xlink:href="#B" transform="matrix(1,0,0,1,914,761.1666666666665) translate(61.265432098765416 15.722222222222209)"/><use xlink:href="#ab" transform="matrix(1,0,0,1,914,761.1666666666665) translate(76.08024691358024 15.722222222222209)"/><use xlink:href="#ac" transform="matrix(1,0,0,1,914,761.1666666666665) translate(136.27777777777777 15.722222222222209)"/><use xlink:href="#ad" transform="matrix(1,0,0,1,914,761.1666666666665) translate(154.00617283950618 15.722222222222209)"/><use xlink:href="#ae" transform="matrix(1,0,0,1,914,761.1666666666665) translate(5.067901234567898 37.05555555555554)"/><use xlink:href="#A" transform="matrix(1,0,0,1,914,761.1666666666665) translate(39.635802469135804 37.05555555555554)"/><use xlink:href="#af" transform="matrix(1,0,0,1,914,761.1666666666665) translate(59.38888888888889 37.05555555555554)"/><use xlink:href="#ag" transform="matrix(1,0,0,1,914,761.1666666666665) translate(107.78395061728396 37.05555555555554)"/><use xlink:href="#ah" transform="matrix(1,0,0,1,914,761.1666666666665) translate(207.43827160493828 37.05555555555554)"/><use xlink:href="#L" transform="matrix(1,0,0,1,914,761.1666666666665) translate(11.462962962962948 58.38888888888888)"/><use xlink:href="#ai" transform="matrix(1,0,0,1,914,761.1666666666665) translate(36.15432098765431 58.38888888888888)"/><use xlink:href="#aj" transform="matrix(1,0,0,1,914,761.1666666666665) translate(123.01851851851852 58.38888888888888)"/><use xlink:href="#ak" transform="matrix(1,0,0,1,914,761.1666666666665) translate(158.5246913580247 58.38888888888888)"/><use xlink:href="#al" transform="matrix(1,0,0,1,914,761.1666666666665) translate(5.018518518518519 79.72222222222221)"/><use xlink:href="#ac" transform="matrix(1,0,0,1,914,761.1666666666665) translate(52.37654320987655 79.72222222222221)"/><use xlink:href="#am" transform="matrix(1,0,0,1,914,761.1666666666665) translate(70.10493827160495 79.72222222222221)"/><use xlink:href="#an" transform="matrix(1,0,0,1,914,761.1666666666665) translate(141.11728395061732 79.72222222222221)"/><use xlink:href="#G" transform="matrix(1,0,0,1,914,761.1666666666665) translate(164.82098765432102 79.72222222222221)"/><use xlink:href="#ao" transform="matrix(1,0,0,1,914,761.1666666666665) translate(194.45061728395063 79.72222222222221)"/><use xlink:href="#ap" transform="matrix(1,0,0,1,914,761.1666666666665) translate(8.030864197530846 101.05555555555556)"/><use xlink:href="#aq" transform="matrix(1,0,0,1,914,761.1666666666665) translate(98.79629629629629 101.05555555555556)"/><use xlink:href="#ar" transform="matrix(1,0,0,1,914,761.1666666666665) translate(122.5 101.05555555555556)"/><use xlink:href="#as" transform="matrix(1,0,0,1,914,761.1666666666665) translate(145.16666666666669 101.05555555555556)"/><use xlink:href="#at" transform="matrix(1,0,0,1,914,761.1666666666665) translate(182.64814814814815 101.05555555555556)"/><use xlink:href="#au" transform="matrix(1,0,0,1,914,761.1666666666665) translate(94.82098765432099 122.3888888888889)"/><path d="M949 723h144v38H949z" stroke="#000" stroke-opacity="0" stroke-width="2" fill="#fff" fill-opacity="0"/><g><use xlink:href="#av" transform="matrix(1,0,0,1,954,728) translate(7.638888888888879 18)"/></g><path d="M373.3 708.48l1.8-.34 3.1-.73 3.02-.83 2.94-.96 2.9-1.06 2.87-1.2 2.87-1.36 2.9-1.52 2.98-1.72 3.1-1.96 3.26-2.27 3.55-2.7 4.04-3.35 5-4.5 8.3-8.2 20.17-20.38 5.8-5.23 4.9-4.05 4.44-3.38 4.2-2.93 4.08-2.6 4.03-2.32 4.03-2.1 4.07-1.93 4.16-1.74 4.3-1.6 4.44-1.43 4.65-1.3 4.9-1.15 5.2-1 5.58-.8 6-.65 6.56-.4 7.17-.15 7.96.17 4.94.26" fill="none"/><path d="M373.3 708.48l1.8-.34 3.1-.73.16-.03m4.97-1.5l.83-.26 2.9-1.06 2.87-1.2 2.87-1.36.12-.06m4.55-2.48l1.2-.7 3.1-1.96 3.27-2.27 1.07-.8m4.1-3.22l2.44-2.03 5-4.5.33-.33m3.7-3.65l4.27-4.2 3.08-3.12m3.65-3.7l7.3-7.37m3.65-3.7l2.5-2.5 5.06-4.6m3.97-3.33l1.65-1.36 4.44-3.38 2.2-1.53m4.3-2.87l1.78-1.13 4.03-2.32 3.22-1.7m4.68-2.23l.2-.1 4.16-1.74 4.3-1.6 1-.32m4.97-1.54l3.12-.87 4.9-1.15 2.06-.4m5.1-.88l3.62-.53 6-.63.7-.04m5.17-.32l.7-.03 7.16-.15 2.53.05m5.2.1l.23.02 4.94.26" stroke="#000" fill="none"/><path d="M373.24 713.14l-14.63-3.33 13.8-5.9z"/><path d="M373.8 713.78l-16.8-3.82 15.84-6.78zm-13.57-4.1l12.45 2.82-.7-7.86z"/><path d="M547.5 621.06l.5.03" stroke="#000" fill="none"/><path d="M373.23 711.9l.5.13 2.6.72 2.6.84 2.56.95 2.57 1.08 2.6 1.22 2.6 1.38 2.7 1.54 2.72 1.73 2.8 1.96 2.93 2.23 3.06 2.52 3.23 2.92 3.48 3.4 3.8 4.04 4.22 4.9 4.9 6.2 6.14 8.47L439 772.9l26.42 41.5 6.08 8.38 4.85 6.13 4.17 4.85 3.73 3.98 3.42 3.34 3.18 2.87 3 2.5 2.87 2.17 2.76 1.92 2.67 1.7 2.6 1.5 2.58 1.35 2.53 1.2 2.5 1.05 2.52.93 2.5.82 2.54.7 2.56.6 2.6.5 2.65.4 2.72.28 2.8.17 2.9.06 3.03-.06 3-.2" fill="none"/><path d="M373.23 711.9l.5.13 2.6.72 1.62.53m4.6 1.72l1.52.63 2.6 1.22 2.6 1.38 2.07 1.18m4.14 2.66l2.03 1.4 2.93 2.23 2.85 2.34m3.65 3.3l3.28 3.2 3.6 3.83m3.22 3.72l1.2 1.38 4.9 6.2.06.08m2.9 3.98l3.18 4.4 2.42 3.67m2.7 4.12l4.63 7 .8 1.22m2.63 4.15l5.3 8.3m2.63 4.13l5.28 8.3m2.64 4.15l5.3 8.3m2.7 4.1l5.22 7.2.58.74m3.05 3.85l1.22 1.54 4.17 4.85 1.02 1.08m3.4 3.56l2.73 2.67 3.18 2.87 1.33 1.1m3.86 3.05l.68.5 2.76 1.92 2.67 1.7 2.12 1.23m4.38 2.24l1.2.56 2.52 1.06 2.5.93 2.52.82.43.12m4.77 1.2l2.48.47 2.65.4 2.72.28 1.9.12m4.9.1l1.93-.05 3-.2" stroke="#000" fill="none"/><path d="M372.22 716.46l-13.6-6.3 14.7-2.9z"/><path d="M372.63 717.2L357 709.96l16.9-3.33zm-12.4-6.86l11.58 5.37.95-7.82z"/><path d="M542.16 861.54l.5-.05" stroke="#000" fill="none"/><path d="M932.64 741.14l-1.92-.2-4.5-.66-3.95-.76-3.54-.82-3.18-.9-2.9-.93-2.64-.98-2.43-1.04-2.28-1.07-2.15-1.13-2-1.16-1.93-1.2-1.84-1.3-1.77-1.33-1.7-1.42-1.7-1.52-1.67-1.64-1.67-1.8-1.7-1.95-1.74-2.22-1.87-2.56-2.07-3.13-2.55-4.22-13.98-25.25-2.3-3.46-2.1-2.9-2.02-2.54-2-2.3-1.97-2.1-2-1.98-2.06-1.85-2.13-1.76-2.2-1.68-2.33-1.62-2.46-1.56-2.6-1.5-2.8-1.47-3.04-1.42-3.3-1.4-3.6-1.33-4-1.3-4.45-1.24-5.04-1.18-5.72-1.08-6.6-.98-7.72-.8-9.17-.57-11.08-.23-13.67.3-17.3 1.1-22.6 2.4-10.2 1.37" fill="none"/><path d="M932.64 741.14l-1.92-.2-2.94-.43m-4.82-.84l-.7-.14-3.53-.82-3.18-.9-2.06-.66m-4.6-1.72l-1.33-.56-2.28-1.07-2.15-1.13-2-1.16-.93-.58m-4.02-2.8l-.6-.45-1.7-1.42-1.7-1.52-1.67-1.64-1.52-1.63m-3.13-3.76l-.45-.57-1.87-2.56-2.07-3.13-1.1-1.83m-2.47-4.23l-4.74-8.57m-2.37-4.3l-4.76-8.56m-2.56-4.18l-.83-1.25-2.1-2.9-2.02-2.54-.96-1.1m-3.3-3.6l-1.72-1.68-2.05-1.85-2.13-1.76-1.5-1.14m-4.04-2.8l-1.45-.9-2.6-1.52-2.8-1.45-1.73-.8m-4.5-1.96l-.1-.06-3.6-1.34-4-1.3-1.58-.44m-4.74-1.23l-3.17-.75-5.72-1.08-.72-.1m-4.85-.72l-1.03-.16-7.72-.8-1-.07m-4.88-.3l-3.3-.2-6.5-.14m-4.9-.07l-9.8.2m-4.9.17l-9.77.63m-4.9.3l-1.28.1-8.47.9m-4.88.5l-9.24 1-.5.05m-4.85.66l-4.85.65" stroke="#000" fill="none"/><path d="M947.38 741.92l-14.5 3.88.5-9.26z"/><path d="M949 742l-16.64 4.46.55-10.64zm-15.57 3.14l12.33-3.3-11.92-4.6z"/><path d="M708.5 648.9l-.5.06" stroke="#000" fill="none"/><path d="M932.68 743.3l-.13.02-3.5.67-3.32.77-3.17.88-3.03 1-2.93 1.07-2.83 1.2-2.76 1.3-2.7 1.4-2.64 1.53-2.62 1.67-2.6 1.8-2.6 1.98-2.6 2.15-2.64 2.38-2.7 2.64-2.76 2.95-2.9 3.34-3.04 3.85-3.3 4.55-3.7 5.57-4.43 7.35-6.68 12.23-17.88 34.12-4.13 6.83-3.4 5.1-2.96 4.08-2.7 3.42-2.54 2.94-2.4 2.56-2.34 2.28-2.25 2.03-2.2 1.83-2.2 1.66-2.16 1.5-2.17 1.4-2.2 1.25-2.2 1.16-2.23 1.06-2.3.96-2.33.87-2.4.8-2.5.68-2.62.62-2.72.52-2.87.42-3.05.3-3.22.2-3.46.08-3.73-.08-.77-.04" fill="none"/><path d="M932.68 743.3l-.13.02-3.5.67-1.25.28m-4.82 1.25l-.42.12-3.03 1-2.93 1.07-2.83 1.2-.13.05m-4.47 2.2l-.86.45-2.64 1.53-2.62 1.67-2.32 1.6m-3.94 3.05l-1.54 1.28-2.64 2.38-2.7 2.64-.43.46m-3.36 3.67l-1.85 2.16-3.05 3.85-1.3 1.8m-2.86 4.06l-2.83 4.26-2.5 4.15m-2.52 4.3l-4.78 8.73m-2.35 4.4l-4.62 8.82m-2.32 4.4l-4.6 8.83m-2.32 4.4l-2.96 5.67-1.85 3.06m-2.6 4.25l-3.06 4.6-2.6 3.6m-3.06 3.9v.02l-2.54 2.94-2.4 2.56-1.83 1.78m-3.7 3.32l-1.27 1.04-2.2 1.66-2.16 1.5-2.17 1.4-.32.17m-4.37 2.37l-1.94.92-2.3.96-2.33.87-2.4.8-.3.06m-4.82 1.25l-2.72.52-2.87.42-3.05.3-1.23.08m-4.98.2h-.47l-3.73-.08-.77-.04" stroke="#000" fill="none"/><path d="M947.38 742.13l-13.85 5.75-.74-9.24z"/><path d="M949 742l-15.9 6.6-.86-10.6zm-15.02 5.16l11.8-4.9-12.43-2.97z"/><path d="M775.18 884.16l-.5-.02" stroke="#000" fill="none"/><path d="M287.87 552.3l.43 2.26.65 2.8.73 2.6.8 2.43.83 2.26.9 2.13.96 2 1 1.93 1.06 1.83 1.1 1.75 1.17 1.7 1.22 1.6 1.3 1.57 1.36 1.52 1.45 1.47 1.53 1.44L306 585l1.73 1.4 1.87 1.35 2 1.33 2.17 1.3 2.37 1.3 2.58 1.3 2.85 1.26 3.16 1.25 3.55 1.23 4.03 1.2 4.64 1.2 5.42 1.14 6.48 1.1 8.02 1 10.45.87 15.1.6 34.78-.17 59.34-.63 19.3.78 14.3 1.2 11.57 1.45 9.75 1.64 8.48 1.8 7.48 1.93 1.45.4" fill="none"/><path d="M287.87 552.3l.43 2.26.62 2.65m1.42 4.8l.13.4.84 2.26.9 2.13.96 2 1 1.93.24.42m2.67 4.24l.42.6 1.22 1.6 1.3 1.57 1.36 1.52 1.45 1.47.8.76m3.82 3.24l.28.22 1.87 1.35 2 1.33 2.17 1.3 2.12 1.17m4.5 2.17l1.17.52 3.16 1.25 3.55 1.23 1.52.45m4.82 1.35l2.32.6 5.42 1.14 2.06.35m4.94.8l7.5.95 2.45.2m5 .42l3 .24 7 .28m5 .2l3.1.13 6.93-.04m5 0l10.03-.07m5-.02l7.82-.03 2.2-.03m5.02-.05l10.02-.12m5-.05l10.02-.1m5-.06l10.03-.1m5-.05l7.05-.08 2.98.12m5 .2l10 .4m5 .37l10 .83m4.97.6l7.22.9 2.7.46m4.93.83l2.12.36 7.7 1.64m4.86 1.22l3.4.87 1.45.4" stroke="#000" fill="none"/><path d="M292.45 551.44l-9.24.78 3.44-14.6z"/><path d="M293.17 551.88l-10.6.9L286.5 536zm-9.32-.22l7.87-.66-4.95-11.77z"/><path d="M548.84 612.24l.5.14" stroke="#000" fill="none"/><path d="M565 943.62V872.5" fill="none"/><path d="M565 943.62v-4.74m0-4.75v-9.48m0-4.74v-9.47m0-4.74v-9.5m0-4.74v-9.48m0-4.74v-4.74" stroke="#000" fill="none"/><path d="M565 958.38l-4.64-14.26h9.28z"/><path d="M565 960l-5.32-16.38h10.64zm-3.95-15.38l3.95 12.14 3.95-12.14z"/><path d="M565 872.5v-.5" stroke="#000" fill="none"/><path d="M932.62 742H708.5" fill="none"/><path d="M932.62 742h-4.98m-4.98 0h-9.97m-5 0h-9.95m-4.98 0h-9.96m-4.97 0h-9.96m-4.98 0h-9.97m-4.98 0H838m-5 0h-9.95m-4.98 0h-9.96m-4.97 0h-9.96m-4.98 0h-9.97m-5 0h-9.95m-4.98 0h-9.96m-4.98 0h-9.96m-4.98 0h-9.96m-4.98 0h-4.98" stroke="#000" fill="none"/><path d="M947.38 742l-14.26 4.64v-9.28z"/><path d="M949 742l-16.38 5.32v-10.64zm-15.38 3.95l12.14-3.95-12.14-3.95z"/><path d="M708.5 742h-.5" stroke="#000" fill="none"/><path d="M373.38 709.96H545.5" fill="none"/><path d="M373.38 709.96h5.22m5.22 0h10.43m5.2 0h10.44m5.2 0h10.44m5.22 0h10.43m5.2 0h10.43m5.22 0h10.43m5.22 0h10.43m5.2 0h10.44m5.22 0h10.42m5.22 0h10.43m5.2 0h5.23" stroke="#000" fill="none"/><path d="M372.88 714.6l-14.26-4.64 14.26-4.64z"/><path d="M373.38 715.28L357 709.96l16.38-5.33zm-13.14-5.32l12.14 3.95V706z"/><path d="M545.5 709.96h.5" stroke="#000" fill="none"/><path d="M726 482h91v35h-91z" stroke="#000" stroke-opacity="0" stroke-width="2" fill="#fff" fill-opacity="0"/><g><use xlink:href="#w" transform="matrix(1,0,0,1,731,487) translate(4.499999999999993 16.055555555555557)"/></g><path d="M559.5 533.38v35.8" fill="none"/><path d="M559.5 533.38v5.97m0 5.96v11.94m0 5.96v5.97" stroke="#000" fill="none"/><path d="M564.14 532.88h-9.28l4.64-14.26z"/><path d="M564.82 533.38h-10.64L559.5 517zm-9.27-1h7.9l-3.95-12.14zM560 569.67h-1v-.52h1z"/><path d="M771.5 533.38v35.8" fill="none"/><path d="M771.5 533.38v5.97m0 5.96v11.94m0 5.96v5.97" stroke="#000" fill="none"/><path d="M776.14 532.88h-9.28l4.64-14.26z"/><path d="M776.82 533.38h-10.64L771.5 517zm-9.27-1h7.9l-3.95-12.14zM772 569.67h-1v-.52h1z"/><path d="M667.5 496.38v72.8" fill="none"/><path d="M667.5 496.38v4.86m0 4.85v9.7m0 4.84v9.7m0 4.86v9.7m0 4.86v9.7m0 4.85v4.87" stroke="#000" fill="none"/><path d="M672.14 495.88h-9.28l4.64-14.26z"/><path d="M672.82 496.38h-10.64L667.5 480zm-9.27-1h7.9l-3.95-12.14zM668 569.67h-1v-.52h1z"/><defs><path fill="#9b0d28" d="M1074-360C991-138 813 15 515 20 220 25 64-146 97-454c33-303 170-518 413-610 69-26 145-38 227-38 250 0 397 117 403 361l-286 14c6-112-45-182-160-182-75 0-135 32-183 93-64 81-123 271-123 431 0 142 55 213 166 213 129 0 207-88 241-201" id="aw"/><path fill="#9b0d28" d="M708-193C620-81 523 15 330 20 129 25 18-101 60-306c48-232 215-341 485-346l224-4c7-45 20-89 20-139 1-86-39-124-117-125-111-1-152 65-180 153l-290-14c73-204 237-321 517-321 254 0 393 135 341 390-30 146-59 290-84 438-11 62 0 114 66 114 21 0 42-2 63-6l-29 152c-59 14-111 26-185 26-136 0-190-69-177-205h-6zm30-308c-139 4-289-11-346 83-19 31-40 91-40 144 0 65 32 98 96 98 184 0 263-154 290-325" id="ax"/><path fill="#9b0d28" d="M878-785c2-107-76-132-183-131-119 2-205 19-222 111-16 90 70 102 145 121 212 54 501 76 442 368C1012-80 798 20 511 20 263 20 83-39 68-270l255-37c-3 153 168 150 315 135 82-9 147-41 159-118 16-101-81-113-165-134-152-39-331-58-402-177-56-94-15-240 36-311 90-126 249-191 465-191 227 0 393 72 401 292" id="ay"/><path fill="#9b0d28" d="M1061-274C957-107 790 19 517 20 218 21 54-146 88-462c35-319 185-528 448-611 67-21 135-29 203-29 270 2 398 150 401 417 0 72-9 133-21 198H385c-33 166 14 324 183 319 116-3 193-49 233-129zM881-663c35-185-91-308-267-247-105 37-165 127-193 247h460" id="az"/><g id="b"><use transform="matrix(0.010850694444444444,0,0,0.010850694444444444,0,0)" xlink:href="#aw"/><use transform="matrix(0.010850694444444444,0,0,0.010850694444444444,13.335503472222221,0)" xlink:href="#ax"/><use transform="matrix(0.010850694444444444,0,0,0.010850694444444444,26.671006944444443,0)" xlink:href="#ay"/><use transform="matrix(0.010850694444444444,0,0,0.010850694444444444,40.006510416666664,0)" xlink:href="#az"/></g><path fill="#00624f" d="M772 0c2-57 14-121 24-174h-5C708-49 608 26 420 26 203 26 113-90 112-311c0-65 8-138 24-221 74-377 241-566 502-566 165 0 259 55 298 184 37-190 73-380 110-570h180C1133-988 1028-504 944 0H772zm109-648c26-189-33-326-219-317-242 11-291 213-338 427-15 68-22 130-23 201 1 149 51 224 193 224 258 0 321-215 372-441 8-34 12-65 15-94" id="aA"/><path fill="#00624f" d="M948-272c-17 76-19 161 70 161 21 0 42-3 60-7L1056-6c-45 10-88 14-142 16-138 6-175-86-155-217h-6C661-83 550 15 337 20 138 24 42-104 82-302c49-247 238-349 523-354l236-4c9-47 22-94 22-148 0-118-65-155-184-157-151-3-231 57-266 172l-185-17c67-189 220-292 480-292 245 0 377 119 330 364zm-678-27c-21 109 31 185 140 182 176-5 282-102 348-217 37-66 43-123 59-200-145 7-304-9-409 44-71 36-119 96-138 191" id="aB"/><path fill="#00624f" d="M9 279c104 15 163 3 243-53 63-44 133-143 181-237L171-1082h192c62 299 135 587 188 896 174-300 351-597 525-896h190L600 0c-97 160-186 316-352 396-73 35-176 36-265 18" id="aC"/><path fill="#00624f" d="M359-1349h823l-30 156H836L634-156h316L920 0H97l30-156h316l202-1037H329" id="aD"/><path fill="#00624f" d="M815-1102c202-2 311 102 279 314-40 267-101 525-150 788H763l135-695c7-39 11-71 11-98 2-119-62-175-179-170-208 9-312 151-348 336L260 0H80c67-361 144-713 204-1082h170c-6 58-17 130-28 185h3c86-116 194-203 386-205" id="aE"/><path fill="#00624f" d="M731 0L431-1130c-8 85-19 175-34 254L227 0H57l262-1349h222L848-211c8-92 19-186 35-274l168-864h172L961 0H731" id="aF"/><path fill="#00624f" d="M419 20c-186 0-282-64-284-243 0-40 5-86 15-138l140-721h180c-47 251-101 497-144 752-25 145 40 219 181 211 211-12 308-150 344-336l122-627h181C1087-721 1010-369 950 0H780c6-58 18-129 28-185h-3C720-71 616 20 419 20" id="aG"/><path fill="#00624f" d="M1000-783c14-86 16-180-76-180-43 0-83 29-120 85s-67 140-88 251L594 0H426c49-261 107-518 150-783 14-86 14-191-77-180-103 13-137 116-173 209-17 43-28 93-39 147L169 0H0c67-361 144-713 204-1082h149c-6 55-18 122-28 175h2c54-95 112-192 254-195 127-2 153 72 158 196 61-99 122-196 274-196 124 0 168 64 168 192 0 67-10 125-22 189L1019 0H851c49-261 106-518 149-783" id="aH"/><path fill="#00624f" d="M809-1104c212 0 310 122 306 343-4 250-95 524-208 640C818-30 715 20 589 20c-161 0-261-59-300-184-11 55-26 116-41 164H74c18-68 35-148 49-223l245-1261h180c-39 193-73 391-116 580h4c79-124 190-200 373-200zM348-430c-24 189 33 326 217 317 240-12 292-213 339-427 14-65 21-126 22-196 0-150-52-229-193-229-257 0-320 212-371 441-7 34-11 65-14 94" id="aI"/><path fill="#00624f" d="M726-1102c256 0 385 126 386 379 1 67-11 147-25 220H315c-7 39-13 78-13 121 2 164 74 267 238 267 154 0 260-65 317-166l149 45C916-82 760 20 514 20c-259 0-398-131-398-390 0-357 148-615 421-704 62-20 125-28 189-28zm202 461c22-192-41-335-226-328-212 9-312 142-358 328h584" id="aJ"/><path fill="#00624f" d="M523-832c93-143 191-271 425-270 69 0 147 7 203 17l-33 167c-114-19-266-34-366 15-148 73-248 213-284 395L369 0H189l136-701c21-116 30-253 22-381h171c8 76 8 174 0 250h5" id="aK"/><g id="c"><use transform="matrix(0.010850694444444444,0,0,0.010850694444444444,0,0)" xlink:href="#aA"/><use transform="matrix(0.010850694444444444,0,0,0.010850694444444444,13.335503472222221,0)" xlink:href="#aB"/><use transform="matrix(0.010850694444444444,0,0,0.010850694444444444,26.671006944444443,0)" xlink:href="#aC"/><use transform="matrix(0.010850694444444444,0,0,0.010850694444444444,40.006510416666664,0)" xlink:href="#aD"/><use transform="matrix(0.010850694444444444,0,0,0.010850694444444444,53.342013888888886,0)" xlink:href="#aE"/><use transform="matrix(0.010850694444444444,0,0,0.010850694444444444,66.67751736111111,0)" xlink:href="#aF"/><use transform="matrix(0.010850694444444444,0,0,0.010850694444444444,80.01302083333334,0)" xlink:href="#aG"/><use transform="matrix(0.010850694444444444,0,0,0.010850694444444444,93.34852430555557,0)" xlink:href="#aH"/><use transform="matrix(0.010850694444444444,0,0,0.010850694444444444,106.6840277777778,0)" xlink:href="#aI"/><use transform="matrix(0.010850694444444444,0,0,0.010850694444444444,120.01953125000003,0)" xlink:href="#aJ"/><use transform="matrix(0.010850694444444444,0,0,0.010850694444444444,133.35503472222226,0)" xlink:href="#aK"/></g><path fill="#9b0d28" d="M725-1102c305 0 463 153 426 468-36 300-163 518-405 612-72 28-154 42-245 42C201 22 46-148 80-460c32-293 164-506 400-600 72-28 153-42 245-42zM432-707c-57 152-149 543 103 535 249-8 288-238 323-464 24-154-11-278-166-273-150 5-217 88-260 202" id="aL"/><path fill="#9b0d28" d="M1270-1302c-135-12-348-49-437 30-47 42-62 115-75 190h443l-37 190H721L548 0H268l173-892H185l37-190h256c31-276 190-432 506-432 119 0 229 13 322 28" id="aM"/><g id="d"><use transform="matrix(0.010850694444444444,0,0,0.010850694444444444,0,0)" xlink:href="#aL"/><use transform="matrix(0.010850694444444444,0,0,0.010850694444444444,13.335503472222221,0)" xlink:href="#aM"/></g><path fill="#834187" d="M778-1370c265 0 387 149 381 421-8 347-108 641-279 816C787-38 668 16 502 20 192 27 89-213 128-534c36-292 118-539 270-692 93-94 212-144 380-144zM332-675c-50 247-71 554 201 548 198-4 278-133 341-289 53-133 101-344 104-531 3-173-58-280-228-277-204 3-283 125-346 284-28 70-51 159-72 265zm166 120l49-249h235l-49 249H498" id="aN"/><use transform="matrix(0.010850694444444444,0,0,0.010850694444444444,0,0)" xlink:href="#aN" id="f"/><path fill="#333" d="M319-464l31-160h560l-31 160H319" id="aO"/><path fill="#333" d="M116-154v-153l858-367-858-366v-154l995 418v205" id="aP"/><g id="g"><use transform="matrix(0.010850694444444444,0,0,0.010850694444444444,0,0)" xlink:href="#aO"/><use transform="matrix(0.010850694444444444,0,0,0.010850694444444444,13.335503472222221,0)" xlink:href="#aP"/></g><path fill="#0c7cba" d="M967-845H825l84-639h224zm-449 0H377l83-639h224" id="aQ"/><path fill="#0c7cba" d="M747-1226c-195 1-328 74-328 254 0 150 168 158 292 193 206 58 444 122 384 409-56 265-271 388-594 390C217 22 49-81 40-338l192-37c3 179 117 247 303 246 215-2 375-80 375-283 0-168-187-179-325-221-168-51-357-87-357-299 0-308 229-433 548-438 258-4 409 81 417 324l-194 33c-2-154-93-214-252-213" id="aR"/><path fill="#0c7cba" d="M419 20c-186 0-282-64-284-243 0-40 5-86 15-138l140-721h180c-47 251-101 497-144 752-25 145 40 219 181 211 211-12 308-150 344-336l122-627h181C1087-721 1010-369 950 0H780c6-58 18-129 28-185h-3C720-71 616 20 419 20" id="aS"/><path fill="#0c7cba" d="M815-1102c202-2 311 102 279 314-40 267-101 525-150 788H763l135-695c7-39 11-71 11-98 2-119-62-175-179-170-208 9-312 151-348 336L260 0H80c67-361 144-713 204-1082h170c-6 58-17 130-28 185h3c86-116 194-203 386-205" id="aT"/><path fill="#0c7cba" d="M772 0c2-57 14-121 24-174h-5C708-49 608 26 420 26 203 26 113-90 112-311c0-65 8-138 24-221 74-377 241-566 502-566 165 0 259 55 298 184 37-190 73-380 110-570h180C1133-988 1028-504 944 0H772zm109-648c26-189-33-326-219-317-242 11-291 213-338 427-15 68-22 130-23 201 1 149 51 224 193 224 258 0 321-215 372-441 8-34 12-65 15-94" id="aU"/><path fill="#0c7cba" d="M948-272c-17 76-19 161 70 161 21 0 42-3 60-7L1056-6c-45 10-88 14-142 16-138 6-175-86-155-217h-6C661-83 550 15 337 20 138 24 42-104 82-302c49-247 238-349 523-354l236-4c9-47 22-94 22-148 0-118-65-155-184-157-151-3-231 57-266 172l-185-17c67-189 220-292 480-292 245 0 377 119 330 364zm-678-27c-21 109 31 185 140 182 176-5 282-102 348-217 37-66 43-123 59-200-145 7-304-9-409 44-71 36-119 96-138 191" id="aV"/><path fill="#0c7cba" d="M9 279c104 15 163 3 243-53 63-44 133-143 181-237L171-1082h192c62 299 135 587 188 896 174-300 351-597 525-896h190L600 0c-97 160-186 316-352 396-73 35-176 36-265 18" id="aW"/><g id="j"><use transform="matrix(0.010850694444444444,0,0,0.010850694444444444,0,0)" xlink:href="#aQ"/><use transform="matrix(0.010850694444444444,0,0,0.010850694444444444,13.335503472222221,0)" xlink:href="#aR"/><use transform="matrix(0.010850694444444444,0,0,0.010850694444444444,26.671006944444443,0)" xlink:href="#aS"/><use transform="matrix(0.010850694444444444,0,0,0.010850694444444444,40.006510416666664,0)" xlink:href="#aT"/><use transform="matrix(0.010850694444444444,0,0,0.010850694444444444,53.342013888888886,0)" xlink:href="#aU"/><use transform="matrix(0.010850694444444444,0,0,0.010850694444444444,66.67751736111111,0)" xlink:href="#aV"/><use transform="matrix(0.010850694444444444,0,0,0.010850694444444444,80.01302083333334,0)" xlink:href="#aW"/><use transform="matrix(0.010850694444444444,0,0,0.010850694444444444,93.34852430555557,0)" xlink:href="#aQ"/></g><path fill="#834187" d="M261-1120c230-8 401-96 507-229h166L700-145h353L1025 0H52l28-145h439l199-1021c-97 119-281 184-486 194" id="aX"/><use transform="matrix(0.010850694444444444,0,0,0.010850694444444444,0,0)" xlink:href="#aX" id="l"/><g id="m"><use transform="matrix(0.010850694444444444,0,0,0.010850694444444444,0,0)" xlink:href="#aO"/><use transform="matrix(0.010850694444444444,0,0,0.010850694444444444,13.335503472222221,0)" xlink:href="#aP"/></g><path fill="#0c7cba" d="M832 0c78-390 148-786 233-1169-124 253-264 488-400 729H528c-43-241-94-472-121-729C339-774 258-390 184 0H24l262-1349h237c39 239 98 457 113 720 117-256 262-480 395-720h225L994 0H832" id="aY"/><path fill="#0c7cba" d="M724-1102c292 0 423 159 388 460-35 307-154 537-400 628-65 24-136 34-212 34-254-2-388-131-388-387 0-255 97-480 226-595 103-92 231-140 386-140zM381-747C294-559 211-98 524-113c294-14 359-254 399-525 28-194-32-337-222-331-174 5-260 94-320 222" id="aZ"/><g id="n"><use transform="matrix(0.010850694444444444,0,0,0.010850694444444444,0,0)" xlink:href="#aQ"/><use transform="matrix(0.010850694444444444,0,0,0.010850694444444444,13.335503472222221,0)" xlink:href="#aY"/><use transform="matrix(0.010850694444444444,0,0,0.010850694444444444,26.671006944444443,0)" xlink:href="#aZ"/><use transform="matrix(0.010850694444444444,0,0,0.010850694444444444,40.006510416666664,0)" xlink:href="#aT"/><use transform="matrix(0.010850694444444444,0,0,0.010850694444444444,53.342013888888886,0)" xlink:href="#aU"/><use transform="matrix(0.010850694444444444,0,0,0.010850694444444444,66.67751736111111,0)" xlink:href="#aV"/><use transform="matrix(0.010850694444444444,0,0,0.010850694444444444,80.01302083333334,0)" xlink:href="#aW"/><use transform="matrix(0.010850694444444444,0,0,0.010850694444444444,93.34852430555557,0)" xlink:href="#aQ"/></g><path fill="#834187" d="M391 0l58-299h235L626 0H391" id="ba"/><use transform="matrix(0.010850694444444444,0,0,0.010850694444444444,0,0)" xlink:href="#ba" id="o"/><use transform="matrix(0.010850694444444444,0,0,0.010850694444444444,0,0)" xlink:href="#ba" id="q"/><path fill="#c46e13" d="M-153 220l19-96h1238l-19 96H-153" id="bb"/><use transform="matrix(0.010850694444444444,0,0,0.010850694444444444,0,0)" xlink:href="#bb" id="s"/><path fill="#0c7cba" d="M305-328c2 145 68 191 220 193 255 4 322-161 364-376l163-838h190l-167 859C1015-179 865 20 496 20c-240 0-388-82-386-321 0-51 6-108 19-171l170-877h191c-59 315-126 624-180 944-5 28-5 54-5 77" id="bc"/><path fill="#0c7cba" d="M809 0L540-499l-151 98L311 0H131l288-1484h180L419-557l577-525h211L678-617 1020 0H809" id="bd"/><path fill="#0c7cba" d="M913 0H709c-23-224-51-444-69-673C534-442 415-224 302 0H99l27-1082h178c-17 313-15 643-55 933 97-223 211-425 317-638h193c22 211 51 414 61 638 86-332 210-623 317-933h176" id="be"/><g id="t"><use transform="matrix(0.010850694444444444,0,0,0.010850694444444444,0,0)" xlink:href="#aQ"/><use transform="matrix(0.010850694444444444,0,0,0.010850694444444444,13.335503472222221,0)" xlink:href="#bc"/><use transform="matrix(0.010850694444444444,0,0,0.010850694444444444,26.671006944444443,0)" xlink:href="#aT"/><use transform="matrix(0.010850694444444444,0,0,0.010850694444444444,40.006510416666664,0)" xlink:href="#bd"/><use transform="matrix(0.010850694444444444,0,0,0.010850694444444444,53.342013888888886,0)" xlink:href="#aT"/><use transform="matrix(0.010850694444444444,0,0,0.010850694444444444,66.67751736111111,0)" xlink:href="#aZ"/><use transform="matrix(0.010850694444444444,0,0,0.010850694444444444,80.01302083333334,0)" xlink:href="#be"/><use transform="matrix(0.010850694444444444,0,0,0.010850694444444444,93.34852430555557,0)" xlink:href="#aT"/></g><g id="u"><use transform="matrix(0.010850694444444444,0,0,0.010850694444444444,0,0)" xlink:href="#aU"/><use transform="matrix(0.010850694444444444,0,0,0.010850694444444444,13.335503472222221,0)" xlink:href="#aV"/><use transform="matrix(0.010850694444444444,0,0,0.010850694444444444,26.671006944444443,0)" xlink:href="#aW"/><use transform="matrix(0.010850694444444444,0,0,0.010850694444444444,40.006510416666664,0)" xlink:href="#aQ"/></g><path fill="#333" d="M147 0L96-86 75-71V0H25v-261h50v150l67-79h53l-66 74L201 0h-54" id="bf"/><path fill="#333" d="M185-48c-13 30-37 53-82 52C43 2 14-33 14-96s30-98 90-98c62 0 83 45 84 108H66c0 31 8 55 39 56 18 0 30-7 34-22zm-45-69c5-46-57-63-70-21-2 6-4 13-4 21h74" id="bg"/><path fill="#333" d="M123 10C108 53 80 86 19 72V37c35 8 53-11 59-39L3-190h52l48 148c12-52 28-100 44-148h51" id="bh"/><path fill="#333" d="M231 0h-52l-39-155L100 0H48L-1-190h46L77-45c9-52 24-97 36-145h53l37 145 32-145h46" id="bi"/><path fill="#333" d="M110-194c64 0 96 36 96 99 0 64-35 99-97 99-61 0-95-36-95-99 0-62 34-99 96-99zm-1 164c35 0 45-28 45-65 0-40-10-65-43-65-34 0-45 26-45 65 0 36 10 65 43 65" id="bj"/><path fill="#333" d="M135-150c-39-12-60 13-60 57V0H25l-1-190h47c2 13-1 29 3 40 6-28 27-53 61-41v41" id="bk"/><path fill="#333" d="M88-194c31-1 46 15 58 34l-1-101h50l1 261h-48c-2-10 0-23-3-31C134-8 116 4 84 4 32 4 16-41 15-95c0-56 19-97 73-99zm17 164c33 0 40-30 41-66 1-37-9-64-41-64s-38 30-39 65c0 43 13 65 39 65" id="bl"/><g id="w"><use transform="matrix(0.04938271604938272,0,0,0.04938271604938272,0,0)" xlink:href="#bf"/><use transform="matrix(0.04938271604938272,0,0,0.04938271604938272,9.876543209876544,0)" xlink:href="#bg"/><use transform="matrix(0.04938271604938272,0,0,0.04938271604938272,19.75308641975309,0)" xlink:href="#bh"/><use transform="matrix(0.04938271604938272,0,0,0.04938271604938272,29.629629629629633,0)" xlink:href="#bi"/><use transform="matrix(0.04938271604938272,0,0,0.04938271604938272,43.4567901234568,0)" xlink:href="#bj"/><use transform="matrix(0.04938271604938272,0,0,0.04938271604938272,54.27160493827161,0)" xlink:href="#bk"/><use transform="matrix(0.04938271604938272,0,0,0.04938271604938272,61.185185185185205,0)" xlink:href="#bl"/></g><path fill="#333" d="M24 0v-248h195v40H76v63h132v40H76v65h150V0H24" id="bm"/><path fill="#333" d="M144 0l-44-69L55 0H2l70-98-66-92h53l41 62 40-62h54l-67 91 71 99h-54" id="bn"/><path fill="#333" d="M135-194c53 0 70 44 70 98 0 56-19 98-73 100-31 1-45-17-59-34 3 33 2 69 2 105H25l-1-265h48c2 10 0 23 3 31 11-24 29-35 60-35zM114-30c33 0 39-31 40-66 0-38-9-64-40-64-56 0-55 130 0 130" id="bo"/><path fill="#333" d="M137-138c1-29-70-34-71-4 15 46 118 7 119 86 1 83-164 76-172 9l43-7c4 19 20 25 44 25 33 8 57-30 24-41C81-84 22-81 20-136c-2-80 154-74 161-7" id="bp"/><path fill="#333" d="M25-224v-37h50v37H25zM25 0v-190h50V0H25" id="bq"/><path fill="#333" d="M135-194c87-1 58 113 63 194h-50c-7-57 23-157-34-157-59 0-34 97-39 157H25l-1-190h47c2 12-1 28 3 38 12-26 28-41 61-42" id="br"/><g id="x"><use transform="matrix(0.04938271604938272,0,0,0.04938271604938272,0,0)" xlink:href="#bm"/><use transform="matrix(0.04938271604938272,0,0,0.04938271604938272,11.851851851851853,0)" xlink:href="#bn"/><use transform="matrix(0.04938271604938272,0,0,0.04938271604938272,21.7283950617284,0)" xlink:href="#bo"/><use transform="matrix(0.04938271604938272,0,0,0.04938271604938272,32.543209876543216,0)" xlink:href="#bk"/><use transform="matrix(0.04938271604938272,0,0,0.04938271604938272,39.4567901234568,0)" xlink:href="#bg"/><use transform="matrix(0.04938271604938272,0,0,0.04938271604938272,49.33333333333334,0)" xlink:href="#bp"/><use transform="matrix(0.04938271604938272,0,0,0.04938271604938272,59.209876543209894,0)" xlink:href="#bp"/><use transform="matrix(0.04938271604938272,0,0,0.04938271604938272,69.08641975308643,0)" xlink:href="#bq"/><use transform="matrix(0.04938271604938272,0,0,0.04938271604938272,74.02469135802471,0)" xlink:href="#bj"/><use transform="matrix(0.04938271604938272,0,0,0.04938271604938272,84.83950617283952,0)" xlink:href="#br"/></g><path fill="#333" d="M127-220V0H93v-220H8v-28h204v28h-85" id="bs"/><path fill="#333" d="M106-169C34-169 62-67 57 0H25v-261h32l-1 103c12-21 28-36 61-36 89 0 53 116 60 194h-32v-121c2-32-8-49-39-48" id="bt"/><path fill="#333" d="M100-194c63 0 86 42 84 106H49c0 40 14 67 53 68 26 1 43-12 49-29l28 8c-11 28-37 45-77 45C44 4 14-33 15-96c1-61 26-98 85-98zm52 81c6-60-76-77-97-28-3 7-6 17-6 28h103" id="bu"/><g id="y"><use transform="matrix(0.04938271604938272,0,0,0.04938271604938272,0,0)" xlink:href="#bs"/><use transform="matrix(0.04938271604938272,0,0,0.04938271604938272,10.814814814814815,0)" xlink:href="#bt"/><use transform="matrix(0.04938271604938272,0,0,0.04938271604938272,20.69135802469136,0)" xlink:href="#bu"/></g><path fill="#333" d="M115-194c53 0 69 39 70 98 0 66-23 100-70 100C84 3 66-7 56-30L54 0H23l1-261h32v101c10-23 28-34 59-34zm-8 174c40 0 45-34 45-75 0-40-5-75-45-74-42 0-51 32-51 76 0 43 10 73 51 73" id="bv"/><path fill="#333" d="M100-194c62-1 85 37 85 99 1 63-27 99-86 99S16-35 15-95c0-66 28-99 85-99zM99-20c44 1 53-31 53-75 0-43-8-75-51-75s-53 32-53 75 10 74 51 75" id="bw"/><path fill="#333" d="M85-194c31 0 48 13 60 33l-1-100h32l1 261h-30c-2-10 0-23-3-31C134-8 116 4 85 4 32 4 16-35 15-94c0-66 23-100 70-100zm9 24c-40 0-46 34-46 75 0 40 6 74 45 74 42 0 51-32 51-76 0-42-9-74-50-73" id="bx"/><path fill="#333" d="M179-190L93 31C79 59 56 82 12 73V49c39 6 53-20 64-50L1-190h34L92-34l54-156h33" id="by"/><g id="z"><use transform="matrix(0.04938271604938272,0,0,0.04938271604938272,0,0)" xlink:href="#bv"/><use transform="matrix(0.04938271604938272,0,0,0.04938271604938272,9.876543209876544,0)" xlink:href="#bw"/><use transform="matrix(0.04938271604938272,0,0,0.04938271604938272,19.75308641975309,0)" xlink:href="#bx"/><use transform="matrix(0.04938271604938272,0,0,0.04938271604938272,29.629629629629633,0)" xlink:href="#by"/></g><path fill="#333" d="M101-234c-31-9-42 10-38 44h38v23H63V0H32v-167H5v-23h27c-7-52 17-82 69-68v24" id="bz"/><g id="A"><use transform="matrix(0.04938271604938272,0,0,0.04938271604938272,0,0)" xlink:href="#bw"/><use transform="matrix(0.04938271604938272,0,0,0.04938271604938272,9.876543209876544,0)" xlink:href="#bz"/></g><path fill="#333" d="M141-36C126-15 110 5 73 4 37 3 15-17 15-53c-1-64 63-63 125-63 3-35-9-54-41-54-24 1-41 7-42 31l-33-3c5-37 33-52 76-52 45 0 72 20 72 64v82c-1 20 7 32 28 27v20c-31 9-61-2-59-35zM48-53c0 20 12 33 32 33 41-3 63-29 60-74-43 2-92-5-92 41" id="bA"/><use transform="matrix(0.04938271604938272,0,0,0.04938271604938272,0,0)" xlink:href="#bA" id="B"/><path fill="#333" d="M96-169c-40 0-48 33-48 73s9 75 48 75c24 0 41-14 43-38l32 2c-6 37-31 61-74 61-59 0-76-41-82-99-10-93 101-131 147-64 4 7 5 14 7 22l-32 3c-4-21-16-35-41-35" id="bB"/><path fill="#333" d="M135-143c-3-34-86-38-87 0 15 53 115 12 119 90S17 21 10-45l28-5c4 36 97 45 98 0-10-56-113-15-118-90-4-57 82-63 122-42 12 7 21 19 24 35" id="bC"/><g id="C"><use transform="matrix(0.04938271604938272,0,0,0.04938271604938272,0,0)" xlink:href="#bB"/><use transform="matrix(0.04938271604938272,0,0,0.04938271604938272,8.88888888888889,0)" xlink:href="#bA"/><use transform="matrix(0.04938271604938272,0,0,0.04938271604938272,18.765432098765434,0)" xlink:href="#bC"/><use transform="matrix(0.04938271604938272,0,0,0.04938271604938272,27.654320987654323,0)" xlink:href="#bu"/></g><path fill="#333" d="M141 0L90-78 38 0H4l68-98-65-92h35l48 74 47-74h35l-64 92 68 98h-35" id="bD"/><path fill="#333" d="M115-194c55 1 70 41 70 98S169 2 115 4C84 4 66-9 55-30l1 105H24l-1-265h31l2 30c10-21 28-34 59-34zm-8 174c40 0 45-34 45-75s-6-73-45-74c-42 0-51 32-51 76 0 43 10 73 51 73" id="bE"/><path fill="#333" d="M114-163C36-179 61-72 57 0H25l-1-190h30c1 12-1 29 2 39 6-27 23-49 58-41v29" id="bF"/><path fill="#333" d="M24-231v-30h32v30H24zM24 0v-190h32V0H24" id="bG"/><path fill="#333" d="M117-194c89-4 53 116 60 194h-32v-121c0-31-8-49-39-48C34-167 62-67 57 0H25l-1-190h30c1 10-1 24 2 32 11-22 29-35 61-36" id="bH"/><g id="D"><use transform="matrix(0.04938271604938272,0,0,0.04938271604938272,0,0)" xlink:href="#bu"/><use transform="matrix(0.04938271604938272,0,0,0.04938271604938272,9.876543209876544,0)" xlink:href="#bD"/><use transform="matrix(0.04938271604938272,0,0,0.04938271604938272,18.765432098765434,0)" xlink:href="#bE"/><use transform="matrix(0.04938271604938272,0,0,0.04938271604938272,28.641975308641978,0)" xlink:href="#bF"/><use transform="matrix(0.04938271604938272,0,0,0.04938271604938272,34.51851851851852,0)" xlink:href="#bu"/><use transform="matrix(0.04938271604938272,0,0,0.04938271604938272,44.39506172839506,0)" xlink:href="#bC"/><use transform="matrix(0.04938271604938272,0,0,0.04938271604938272,53.28395061728394,0)" xlink:href="#bC"/><use transform="matrix(0.04938271604938272,0,0,0.04938271604938272,62.172839506172835,0)" xlink:href="#bG"/><use transform="matrix(0.04938271604938272,0,0,0.04938271604938272,66.07407407407408,0)" xlink:href="#bw"/><use transform="matrix(0.04938271604938272,0,0,0.04938271604938272,75.95061728395062,0)" xlink:href="#bH"/></g><path fill="#333" d="M59-47c-2 24 18 29 38 22v24C64 9 27 4 27-40v-127H5v-23h24l9-43h21v43h35v23H59v120" id="bI"/><g id="E"><use transform="matrix(0.04938271604938272,0,0,0.04938271604938272,0,0)" xlink:href="#bC"/><use transform="matrix(0.04938271604938272,0,0,0.04938271604938272,8.88888888888889,0)" xlink:href="#bI"/><use transform="matrix(0.04938271604938272,0,0,0.04938271604938272,13.827160493827162,0)" xlink:href="#bA"/><use transform="matrix(0.04938271604938272,0,0,0.04938271604938272,23.703703703703706,0)" xlink:href="#bF"/><use transform="matrix(0.04938271604938272,0,0,0.04938271604938272,29.58024691358025,0)" xlink:href="#bI"/><use transform="matrix(0.04938271604938272,0,0,0.04938271604938272,34.51851851851852,0)" xlink:href="#bC"/></g><g id="F"><use transform="matrix(0.04938271604938272,0,0,0.04938271604938272,0,0)" xlink:href="#bw"/><use transform="matrix(0.04938271604938272,0,0,0.04938271604938272,9.876543209876544,0)" xlink:href="#bH"/></g><g id="G"><use transform="matrix(0.04938271604938272,0,0,0.04938271604938272,0,0)" xlink:href="#bI"/><use transform="matrix(0.04938271604938272,0,0,0.04938271604938272,4.938271604938272,0)" xlink:href="#bt"/><use transform="matrix(0.04938271604938272,0,0,0.04938271604938272,14.814814814814817,0)" xlink:href="#bu"/></g><g id="H"><use transform="matrix(0.04938271604938272,0,0,0.04938271604938272,0,0)" xlink:href="#bH"/><use transform="matrix(0.04938271604938272,0,0,0.04938271604938272,9.876543209876544,0)" xlink:href="#bu"/><use transform="matrix(0.04938271604938272,0,0,0.04938271604938272,19.75308641975309,0)" xlink:href="#bD"/><use transform="matrix(0.04938271604938272,0,0,0.04938271604938272,28.641975308641978,0)" xlink:href="#bI"/></g><path fill="#333" d="M24 0v-261h32V0H24" id="bJ"/><path fill="#333" d="M33 0v-38h34V0H33" id="bK"/><g id="I"><use transform="matrix(0.04938271604938272,0,0,0.04938271604938272,0,0)" xlink:href="#bJ"/><use transform="matrix(0.04938271604938272,0,0,0.04938271604938272,3.901234567901235,0)" xlink:href="#bG"/><use transform="matrix(0.04938271604938272,0,0,0.04938271604938272,7.80246913580247,0)" xlink:href="#bH"/><use transform="matrix(0.04938271604938272,0,0,0.04938271604938272,17.679012345679013,0)" xlink:href="#bu"/><use transform="matrix(0.04938271604938272,0,0,0.04938271604938272,27.555555555555557,0)" xlink:href="#bK"/></g><path fill="#333" d="M33 0v-248h34V0H33" id="bL"/><g id="J"><use transform="matrix(0.04938271604938272,0,0,0.04938271604938272,0,0)" xlink:href="#bL"/><use transform="matrix(0.04938271604938272,0,0,0.04938271604938272,4.938271604938272,0)" xlink:href="#bI"/></g><path fill="#333" d="M210-169c-67 3-38 105-44 169h-31v-121c0-29-5-50-35-48C34-165 62-65 56 0H25l-1-190h30c1 10-1 24 2 32 10-44 99-50 107 0 11-21 27-35 58-36 85-2 47 119 55 194h-31v-121c0-29-5-49-35-48" id="bM"/><path fill="#333" d="M84 4C-5 8 30-112 23-190h32v120c0 31 7 50 39 49 72-2 45-101 50-169h31l1 190h-30c-1-10 1-25-2-33-11 22-28 36-60 37" id="bN"/><g id="K"><use transform="matrix(0.04938271604938272,0,0,0.04938271604938272,0,0)" xlink:href="#bM"/><use transform="matrix(0.04938271604938272,0,0,0.04938271604938272,14.765432098765434,0)" xlink:href="#bN"/><use transform="matrix(0.04938271604938272,0,0,0.04938271604938272,24.641975308641978,0)" xlink:href="#bC"/><use transform="matrix(0.04938271604938272,0,0,0.04938271604938272,33.53086419753087,0)" xlink:href="#bI"/></g><g id="L"><use transform="matrix(0.04938271604938272,0,0,0.04938271604938272,0,0)" xlink:href="#bv"/><use transform="matrix(0.04938271604938272,0,0,0.04938271604938272,9.876543209876544,0)" xlink:href="#bu"/></g><g id="M"><use transform="matrix(0.04938271604938272,0,0,0.04938271604938272,0,0)" xlink:href="#bG"/><use transform="matrix(0.04938271604938272,0,0,0.04938271604938272,3.901234567901235,0)" xlink:href="#bH"/><use transform="matrix(0.04938271604938272,0,0,0.04938271604938272,13.777777777777779,0)" xlink:href="#bx"/><use transform="matrix(0.04938271604938272,0,0,0.04938271604938272,23.654320987654323,0)" xlink:href="#bu"/><use transform="matrix(0.04938271604938272,0,0,0.04938271604938272,33.53086419753087,0)" xlink:href="#bH"/><use transform="matrix(0.04938271604938272,0,0,0.04938271604938272,43.40740740740741,0)" xlink:href="#bI"/><use transform="matrix(0.04938271604938272,0,0,0.04938271604938272,48.345679012345684,0)" xlink:href="#bu"/><use transform="matrix(0.04938271604938272,0,0,0.04938271604938272,58.22222222222223,0)" xlink:href="#bx"/></g><path fill="#333" d="M206 0h-36l-40-164L89 0H53L-1-190h32L70-26l43-164h34l41 164 42-164h31" id="bO"/><g id="N"><use transform="matrix(0.04938271604938272,0,0,0.04938271604938272,0,0)" xlink:href="#bO"/><use transform="matrix(0.04938271604938272,0,0,0.04938271604938272,12.790123456790125,0)" xlink:href="#bG"/><use transform="matrix(0.04938271604938272,0,0,0.04938271604938272,16.69135802469136,0)" xlink:href="#bI"/><use transform="matrix(0.04938271604938272,0,0,0.04938271604938272,21.629629629629633,0)" xlink:href="#bt"/></g><g id="O"><use transform="matrix(0.04938271604938272,0,0,0.04938271604938272,0,0)" xlink:href="#bA"/><use transform="matrix(0.04938271604938272,0,0,0.04938271604938272,9.876543209876544,0)" xlink:href="#bI"/></g><g id="P"><use transform="matrix(0.04938271604938272,0,0,0.04938271604938272,0,0)" xlink:href="#bJ"/><use transform="matrix(0.04938271604938272,0,0,0.04938271604938272,3.901234567901235,0)" xlink:href="#bu"/><use transform="matrix(0.04938271604938272,0,0,0.04938271604938272,13.777777777777779,0)" xlink:href="#bA"/><use transform="matrix(0.04938271604938272,0,0,0.04938271604938272,23.654320987654323,0)" xlink:href="#bC"/><use transform="matrix(0.04938271604938272,0,0,0.04938271604938272,32.543209876543216,0)" xlink:href="#bI"/></g><g id="Q"><use transform="matrix(0.04938271604938272,0,0,0.04938271604938272,0,0)" xlink:href="#bw"/><use transform="matrix(0.04938271604938272,0,0,0.04938271604938272,9.876543209876544,0)" xlink:href="#bH"/><use transform="matrix(0.04938271604938272,0,0,0.04938271604938272,19.75308641975309,0)" xlink:href="#bu"/></g><g id="R"><use transform="matrix(0.04938271604938272,0,0,0.04938271604938272,0,0)" xlink:href="#bC"/><use transform="matrix(0.04938271604938272,0,0,0.04938271604938272,8.88888888888889,0)" xlink:href="#bE"/><use transform="matrix(0.04938271604938272,0,0,0.04938271604938272,18.765432098765434,0)" xlink:href="#bA"/><use transform="matrix(0.04938271604938272,0,0,0.04938271604938272,28.641975308641978,0)" xlink:href="#bB"/><use transform="matrix(0.04938271604938272,0,0,0.04938271604938272,37.53086419753087,0)" xlink:href="#bu"/></g><path fill="#834187" d="M24 0v-248h52V0H24" id="bP"/><path fill="#834187" d="M135-194c87-1 58 113 63 194h-50c-7-57 23-157-34-157-59 0-34 97-39 157H25l-1-190h47c2 12-1 28 3 38 12-26 28-41 61-42" id="bQ"/><path fill="#834187" d="M88-194c31-1 46 15 58 34l-1-101h50l1 261h-48c-2-10 0-23-3-31C134-8 116 4 84 4 32 4 16-41 15-95c0-56 19-97 73-99zm17 164c33 0 40-30 41-66 1-37-9-64-41-64s-38 30-39 65c0 43 13 65 39 65" id="bR"/><path fill="#834187" d="M185-48c-13 30-37 53-82 52C43 2 14-33 14-96s30-98 90-98c62 0 83 45 84 108H66c0 31 8 55 39 56 18 0 30-7 34-22zm-45-69c5-46-57-63-70-21-2 6-4 13-4 21h74" id="bS"/><path fill="#834187" d="M115-3C79 11 28 4 28-45v-112H4v-33h27l15-45h31v45h36v33H77v99c-1 23 16 31 38 25v30" id="bT"/><path fill="#834187" d="M133-34C117-15 103 5 69 4 32 3 11-16 11-54c-1-60 55-63 116-61 1-26-3-47-28-47-18 1-26 9-28 27l-52-2c7-38 36-58 82-57s74 22 75 68l1 82c-1 14 12 18 25 15v27c-30 8-71 5-69-32zm-48 3c29 0 43-24 42-57-32 0-66-3-65 30 0 17 8 27 23 27" id="bU"/><path fill="#834187" d="M25-224v-37h50v37H25zM25 0v-190h50V0H25" id="bV"/><path fill="#834187" d="M110-194c64 0 96 36 96 99 0 64-35 99-97 99-61 0-95-36-95-99 0-62 34-99 96-99zm-1 164c35 0 45-28 45-65 0-40-10-65-43-65-34 0-45 26-45 65 0 36 10 65 43 65" id="bW"/><g id="S"><use transform="matrix(0.05555555555555555,0,0,0.05555555555555555,0,0)" xlink:href="#bP"/><use transform="matrix(0.05555555555555555,0,0,0.05555555555555555,5.555555555555555,0)" xlink:href="#bQ"/><use transform="matrix(0.05555555555555555,0,0,0.05555555555555555,17.72222222222222,0)" xlink:href="#bR"/><use transform="matrix(0.05555555555555555,0,0,0.05555555555555555,29.888888888888886,0)" xlink:href="#bS"/><use transform="matrix(0.05555555555555555,0,0,0.05555555555555555,41,0)" xlink:href="#bQ"/><use transform="matrix(0.05555555555555555,0,0,0.05555555555555555,53.166666666666664,0)" xlink:href="#bT"/><use transform="matrix(0.05555555555555555,0,0,0.05555555555555555,59.77777777777777,0)" xlink:href="#bU"/><use transform="matrix(0.05555555555555555,0,0,0.05555555555555555,70.88888888888889,0)" xlink:href="#bT"/><use transform="matrix(0.05555555555555555,0,0,0.05555555555555555,77.5,0)" xlink:href="#bV"/><use transform="matrix(0.05555555555555555,0,0,0.05555555555555555,83.05555555555556,0)" xlink:href="#bW"/><use transform="matrix(0.05555555555555555,0,0,0.05555555555555555,95.22222222222223,0)" xlink:href="#bQ"/></g><path fill="#834187" d="M24-248c93 1 206-16 204 79-1 75-69 88-152 82V0H24v-248zm52 121c47 0 100 7 100-41 0-47-54-39-100-39v80" id="bX"/><path fill="#834187" d="M135-150c-39-12-60 13-60 57V0H25l-1-190h47c2 13-1 29 3 40 6-28 27-53 61-41v41" id="bY"/><path fill="#834187" d="M137-138c1-29-70-34-71-4 15 46 118 7 119 86 1 83-164 76-172 9l43-7c4 19 20 25 44 25 33 8 57-30 24-41C81-84 22-81 20-136c-2-80 154-74 161-7" id="bZ"/><g id="T"><use transform="matrix(0.04938271604938272,0,0,0.04938271604938272,0,0)" xlink:href="#bX"/><use transform="matrix(0.04938271604938272,0,0,0.04938271604938272,11.851851851851853,0)" xlink:href="#bU"/><use transform="matrix(0.04938271604938272,0,0,0.04938271604938272,21.7283950617284,0)" xlink:href="#bT"/><use transform="matrix(0.04938271604938272,0,0,0.04938271604938272,27.604938271604947,0)" xlink:href="#bT"/><use transform="matrix(0.04938271604938272,0,0,0.04938271604938272,33.48148148148149,0)" xlink:href="#bS"/><use transform="matrix(0.04938271604938272,0,0,0.04938271604938272,43.35802469135803,0)" xlink:href="#bY"/><use transform="matrix(0.04938271604938272,0,0,0.04938271604938272,50.271604938271615,0)" xlink:href="#bQ"/><use transform="matrix(0.04938271604938272,0,0,0.04938271604938272,61.08641975308644,0)" xlink:href="#bZ"/></g><g id="U"><use transform="matrix(0.04938271604938272,0,0,0.04938271604938272,0,0)" xlink:href="#bT"/><use transform="matrix(0.04938271604938272,0,0,0.04938271604938272,5.8765432098765435,0)" xlink:href="#bW"/></g><path fill="#834187" d="M220-157c-53 9-28 100-34 157h-49v-107c1-27-5-49-29-50C55-147 81-57 75 0H25l-1-190h47c2 12-1 28 3 38 10-53 101-56 108 0 13-22 24-43 59-42 82 1 51 116 57 194h-49v-107c-1-25-5-48-29-50" id="ca"/><path fill="#834187" d="M190-63c-7 42-38 67-86 67-59 0-84-38-90-98-12-110 154-137 174-36l-49 2c-2-19-15-32-35-32-30 0-35 28-38 64-6 74 65 87 74 30" id="cb"/><path fill="#834187" d="M114-157C55-157 80-60 75 0H25v-261h50l-1 109c12-26 28-41 61-42 86-1 58 113 63 194h-50c-7-57 23-157-34-157" id="cc"/><g id="V"><use transform="matrix(0.04938271604938272,0,0,0.04938271604938272,0,0)" xlink:href="#ca"/><use transform="matrix(0.04938271604938272,0,0,0.04938271604938272,15.80246913580247,0)" xlink:href="#bU"/><use transform="matrix(0.04938271604938272,0,0,0.04938271604938272,25.679012345679016,0)" xlink:href="#bT"/><use transform="matrix(0.04938271604938272,0,0,0.04938271604938272,31.555555555555557,0)" xlink:href="#cb"/><use transform="matrix(0.04938271604938272,0,0,0.04938271604938272,41.4320987654321,0)" xlink:href="#cc"/></g><path fill="#834187" d="M195-6C206 82 75 100 31 46c-4-6-6-13-8-21l49-6c3 16 16 24 34 25 40 0 42-37 40-79-11 22-30 35-61 35-53 0-70-43-70-97 0-56 18-96 73-97 30 0 46 14 59 34l2-30h47zm-90-29c32 0 41-27 41-63 0-35-9-62-40-62-32 0-39 29-40 63 0 36 9 62 39 62" id="cd"/><g id="W"><use transform="matrix(0.04938271604938272,0,0,0.04938271604938272,0,0)" xlink:href="#bU"/><use transform="matrix(0.04938271604938272,0,0,0.04938271604938272,9.876543209876544,0)" xlink:href="#cd"/><use transform="matrix(0.04938271604938272,0,0,0.04938271604938272,20.69135802469136,0)" xlink:href="#bU"/><use transform="matrix(0.04938271604938272,0,0,0.04938271604938272,30.567901234567906,0)" xlink:href="#bV"/><use transform="matrix(0.04938271604938272,0,0,0.04938271604938272,35.50617283950618,0)" xlink:href="#bQ"/><use transform="matrix(0.04938271604938272,0,0,0.04938271604938272,46.320987654320994,0)" xlink:href="#bZ"/><use transform="matrix(0.04938271604938272,0,0,0.04938271604938272,56.19753086419754,0)" xlink:href="#bT"/></g><path fill="#c46e13" d="M67-125c0 53 21 87 73 88 37 1 54-22 65-47l45 17C233-25 199 4 140 4 58 4 20-42 15-125 8-235 124-281 211-232c18 10 29 29 36 50l-46 12c-8-25-30-41-62-41-52 0-71 34-72 86" id="ce"/><path fill="#c46e13" d="M133-34C117-15 103 5 69 4 32 3 11-16 11-54c-1-60 55-63 116-61 1-26-3-47-28-47-18 1-26 9-28 27l-52-2c7-38 36-58 82-57s74 22 75 68l1 82c-1 14 12 18 25 15v27c-30 8-71 5-69-32zm-48 3c29 0 43-24 42-57-32 0-66-3-65 30 0 17 8 27 23 27" id="cf"/><path fill="#c46e13" d="M115-3C79 11 28 4 28-45v-112H4v-33h27l15-45h31v45h36v33H77v99c-1 23 16 31 38 25v30" id="cg"/><path fill="#c46e13" d="M190-63c-7 42-38 67-86 67-59 0-84-38-90-98-12-110 154-137 174-36l-49 2c-2-19-15-32-35-32-30 0-35 28-38 64-6 74 65 87 74 30" id="ch"/><path fill="#c46e13" d="M114-157C55-157 80-60 75 0H25v-261h50l-1 109c12-26 28-41 61-42 86-1 58 113 63 194h-50c-7-57 23-157-34-157" id="ci"/><g id="X"><use transform="matrix(0.04938271604938272,0,0,0.04938271604938272,0,0)" xlink:href="#ce"/><use transform="matrix(0.04938271604938272,0,0,0.04938271604938272,12.790123456790125,0)" xlink:href="#cf"/><use transform="matrix(0.04938271604938272,0,0,0.04938271604938272,22.66666666666667,0)" xlink:href="#cg"/><use transform="matrix(0.04938271604938272,0,0,0.04938271604938272,28.54320987654322,0)" xlink:href="#ch"/><use transform="matrix(0.04938271604938272,0,0,0.04938271604938272,38.41975308641976,0)" xlink:href="#ci"/></g><path fill="#c46e13" d="M25 0v-261h50V0H25" id="cj"/><g id="Y"><use transform="matrix(0.04938271604938272,0,0,0.04938271604938272,0,0)" xlink:href="#cf"/><use transform="matrix(0.04938271604938272,0,0,0.04938271604938272,9.876543209876544,0)" xlink:href="#cj"/><use transform="matrix(0.04938271604938272,0,0,0.04938271604938272,14.814814814814817,0)" xlink:href="#cj"/></g><path fill="#c46e13" d="M135-194c53 0 70 44 70 98 0 56-19 98-73 100-31 1-45-17-59-34 3 33 2 69 2 105H25l-1-265h48c2 10 0 23 3 31 11-24 29-35 60-35zM114-30c33 0 39-31 40-66 0-38-9-64-40-64-56 0-55 130 0 130" id="ck"/><path fill="#c46e13" d="M185-48c-13 30-37 53-82 52C43 2 14-33 14-96s30-98 90-98c62 0 83 45 84 108H66c0 31 8 55 39 56 18 0 30-7 34-22zm-45-69c5-46-57-63-70-21-2 6-4 13-4 21h74" id="cl"/><path fill="#c46e13" d="M135-150c-39-12-60 13-60 57V0H25l-1-190h47c2 13-1 29 3 40 6-28 27-53 61-41v41" id="cm"/><path fill="#c46e13" d="M135-194c87-1 58 113 63 194h-50c-7-57 23-157-34-157-59 0-34 97-39 157H25l-1-190h47c2 12-1 28 3 38 12-26 28-41 61-42" id="cn"/><g id="Z"><use transform="matrix(0.04938271604938272,0,0,0.04938271604938272,0,0)" xlink:href="#ck"/><use transform="matrix(0.04938271604938272,0,0,0.04938271604938272,10.814814814814815,0)" xlink:href="#cf"/><use transform="matrix(0.04938271604938272,0,0,0.04938271604938272,20.69135802469136,0)" xlink:href="#cg"/><use transform="matrix(0.04938271604938272,0,0,0.04938271604938272,26.567901234567902,0)" xlink:href="#cg"/><use transform="matrix(0.04938271604938272,0,0,0.04938271604938272,32.44444444444445,0)" xlink:href="#cl"/><use transform="matrix(0.04938271604938272,0,0,0.04938271604938272,42.320987654320994,0)" xlink:href="#cm"/><use transform="matrix(0.04938271604938272,0,0,0.04938271604938272,49.23456790123458,0)" xlink:href="#cn"/></g><path fill="#333" d="M266 0h-40l-56-210L115 0H75L2-248h35L96-30l15-64 43-154h32l59 218 59-218h35" id="co"/><g id="aa"><use transform="matrix(0.04938271604938272,0,0,0.04938271604938272,0,0)" xlink:href="#co"/><use transform="matrix(0.04938271604938272,0,0,0.04938271604938272,16.74074074074074,0)" xlink:href="#bt"/><use transform="matrix(0.04938271604938272,0,0,0.04938271604938272,26.617283950617285,0)" xlink:href="#bu"/><use transform="matrix(0.04938271604938272,0,0,0.04938271604938272,36.49382716049383,0)" xlink:href="#bH"/></g><g id="ab"><use transform="matrix(0.04938271604938272,0,0,0.04938271604938272,0,0)" xlink:href="#bE"/><use transform="matrix(0.04938271604938272,0,0,0.04938271604938272,9.876543209876544,0)" xlink:href="#bA"/><use transform="matrix(0.04938271604938272,0,0,0.04938271604938272,19.75308641975309,0)" xlink:href="#bI"/><use transform="matrix(0.04938271604938272,0,0,0.04938271604938272,24.69135802469136,0)" xlink:href="#bI"/><use transform="matrix(0.04938271604938272,0,0,0.04938271604938272,29.629629629629633,0)" xlink:href="#bu"/><use transform="matrix(0.04938271604938272,0,0,0.04938271604938272,39.50617283950618,0)" xlink:href="#bF"/><use transform="matrix(0.04938271604938272,0,0,0.04938271604938272,45.38271604938272,0)" xlink:href="#bH"/></g><g id="ac"><use transform="matrix(0.04938271604938272,0,0,0.04938271604938272,0,0)" xlink:href="#bG"/><use transform="matrix(0.04938271604938272,0,0,0.04938271604938272,3.901234567901235,0)" xlink:href="#bC"/></g><path fill="#333" d="M68-38c1 34 0 65-14 84H32c9-13 17-26 17-46H33v-38h35" id="cp"/><g id="ad"><use transform="matrix(0.04938271604938272,0,0,0.04938271604938272,0,0)" xlink:href="#bM"/><use transform="matrix(0.04938271604938272,0,0,0.04938271604938272,14.765432098765434,0)" xlink:href="#bA"/><use transform="matrix(0.04938271604938272,0,0,0.04938271604938272,24.641975308641978,0)" xlink:href="#bI"/><use transform="matrix(0.04938271604938272,0,0,0.04938271604938272,29.58024691358025,0)" xlink:href="#bB"/><use transform="matrix(0.04938271604938272,0,0,0.04938271604938272,38.46913580246914,0)" xlink:href="#bt"/><use transform="matrix(0.04938271604938272,0,0,0.04938271604938272,48.345679012345684,0)" xlink:href="#bu"/><use transform="matrix(0.04938271604938272,0,0,0.04938271604938272,58.22222222222223,0)" xlink:href="#bx"/><use transform="matrix(0.04938271604938272,0,0,0.04938271604938272,68.09876543209877,0)" xlink:href="#cp"/></g><g id="ae"><use transform="matrix(0.04938271604938272,0,0,0.04938271604938272,0,0)" xlink:href="#bw"/><use transform="matrix(0.04938271604938272,0,0,0.04938271604938272,9.876543209876544,0)" xlink:href="#bH"/><use transform="matrix(0.04938271604938272,0,0,0.04938271604938272,19.75308641975309,0)" xlink:href="#bu"/></g><g id="af"><use transform="matrix(0.04938271604938272,0,0,0.04938271604938272,0,0)" xlink:href="#bI"/><use transform="matrix(0.04938271604938272,0,0,0.04938271604938272,4.938271604938272,0)" xlink:href="#bt"/><use transform="matrix(0.04938271604938272,0,0,0.04938271604938272,14.814814814814817,0)" xlink:href="#bu"/><use transform="matrix(0.04938271604938272,0,0,0.04938271604938272,24.69135802469136,0)" xlink:href="#bC"/><use transform="matrix(0.04938271604938272,0,0,0.04938271604938272,33.580246913580254,0)" xlink:href="#bu"/></g><g id="ag"><use transform="matrix(0.04938271604938272,0,0,0.04938271604938272,0,0)" xlink:href="#bu"/><use transform="matrix(0.04938271604938272,0,0,0.04938271604938272,9.876543209876544,0)" xlink:href="#bD"/><use transform="matrix(0.04938271604938272,0,0,0.04938271604938272,18.765432098765434,0)" xlink:href="#bE"/><use transform="matrix(0.04938271604938272,0,0,0.04938271604938272,28.641975308641978,0)" xlink:href="#bF"/><use transform="matrix(0.04938271604938272,0,0,0.04938271604938272,34.51851851851852,0)" xlink:href="#bu"/><use transform="matrix(0.04938271604938272,0,0,0.04938271604938272,44.39506172839506,0)" xlink:href="#bC"/><use transform="matrix(0.04938271604938272,0,0,0.04938271604938272,53.28395061728394,0)" xlink:href="#bC"/><use transform="matrix(0.04938271604938272,0,0,0.04938271604938272,62.172839506172835,0)" xlink:href="#bG"/><use transform="matrix(0.04938271604938272,0,0,0.04938271604938272,66.07407407407408,0)" xlink:href="#bw"/><use transform="matrix(0.04938271604938272,0,0,0.04938271604938272,75.95061728395062,0)" xlink:href="#bH"/><use transform="matrix(0.04938271604938272,0,0,0.04938271604938272,85.82716049382717,0)" xlink:href="#bC"/></g><g id="ah"><use transform="matrix(0.04938271604938272,0,0,0.04938271604938272,0,0)" xlink:href="#bO"/><use transform="matrix(0.04938271604938272,0,0,0.04938271604938272,12.790123456790125,0)" xlink:href="#bG"/><use transform="matrix(0.04938271604938272,0,0,0.04938271604938272,16.69135802469136,0)" xlink:href="#bJ"/><use transform="matrix(0.04938271604938272,0,0,0.04938271604938272,20.592592592592595,0)" xlink:href="#bJ"/></g><path fill="#333" d="M108 0H70L1-190h34L89-25l56-165h34" id="cq"/><g id="ai"><use transform="matrix(0.04938271604938272,0,0,0.04938271604938272,0,0)" xlink:href="#bu"/><use transform="matrix(0.04938271604938272,0,0,0.04938271604938272,9.876543209876544,0)" xlink:href="#cq"/><use transform="matrix(0.04938271604938272,0,0,0.04938271604938272,18.765432098765434,0)" xlink:href="#bA"/><use transform="matrix(0.04938271604938272,0,0,0.04938271604938272,28.641975308641978,0)" xlink:href="#bJ"/><use transform="matrix(0.04938271604938272,0,0,0.04938271604938272,32.543209876543216,0)" xlink:href="#bN"/><use transform="matrix(0.04938271604938272,0,0,0.04938271604938272,42.41975308641976,0)" xlink:href="#bA"/><use transform="matrix(0.04938271604938272,0,0,0.04938271604938272,52.2962962962963,0)" xlink:href="#bI"/><use transform="matrix(0.04938271604938272,0,0,0.04938271604938272,57.23456790123457,0)" xlink:href="#bu"/><use transform="matrix(0.04938271604938272,0,0,0.04938271604938272,67.11111111111111,0)" xlink:href="#bx"/><use transform="matrix(0.04938271604938272,0,0,0.04938271604938272,76.98765432098766,0)" xlink:href="#bK"/></g><g id="aj"><use transform="matrix(0.04938271604938272,0,0,0.04938271604938272,0,0)" xlink:href="#bs"/><use transform="matrix(0.04938271604938272,0,0,0.04938271604938272,10.814814814814815,0)" xlink:href="#bt"/><use transform="matrix(0.04938271604938272,0,0,0.04938271604938272,20.69135802469136,0)" xlink:href="#bu"/></g><path fill="#333" d="M177-190C167-65 218 103 67 71c-23-6-38-20-44-43l32-5c15 47 100 32 89-28v-30C133-14 115 1 83 1 29 1 15-40 15-95c0-56 16-97 71-98 29-1 48 16 59 35 1-10 0-23 2-32h30zM94-22c36 0 50-32 50-73 0-42-14-75-50-75-39 0-46 34-46 75s6 73 46 73" id="cr"/><g id="ak"><use transform="matrix(0.04938271604938272,0,0,0.04938271604938272,0,0)" xlink:href="#bF"/><use transform="matrix(0.04938271604938272,0,0,0.04938271604938272,5.8765432098765435,0)" xlink:href="#bu"/><use transform="matrix(0.04938271604938272,0,0,0.04938271604938272,15.753086419753087,0)" xlink:href="#bC"/><use transform="matrix(0.04938271604938272,0,0,0.04938271604938272,24.641975308641978,0)" xlink:href="#bN"/><use transform="matrix(0.04938271604938272,0,0,0.04938271604938272,34.51851851851852,0)" xlink:href="#bJ"/><use transform="matrix(0.04938271604938272,0,0,0.04938271604938272,38.41975308641975,0)" xlink:href="#bI"/><use transform="matrix(0.04938271604938272,0,0,0.04938271604938272,43.358024691358025,0)" xlink:href="#bG"/><use transform="matrix(0.04938271604938272,0,0,0.04938271604938272,47.25925925925926,0)" xlink:href="#bH"/><use transform="matrix(0.04938271604938272,0,0,0.04938271604938272,57.135802469135804,0)" xlink:href="#cr"/></g><g id="al"><use transform="matrix(0.04938271604938272,0,0,0.04938271604938272,0,0)" xlink:href="#cq"/><use transform="matrix(0.04938271604938272,0,0,0.04938271604938272,8.88888888888889,0)" xlink:href="#bA"/><use transform="matrix(0.04938271604938272,0,0,0.04938271604938272,18.765432098765434,0)" xlink:href="#bJ"/><use transform="matrix(0.04938271604938272,0,0,0.04938271604938272,22.666666666666668,0)" xlink:href="#bN"/><use transform="matrix(0.04938271604938272,0,0,0.04938271604938272,32.543209876543216,0)" xlink:href="#bu"/></g><g id="am"><use transform="matrix(0.04938271604938272,0,0,0.04938271604938272,0,0)" xlink:href="#bF"/><use transform="matrix(0.04938271604938272,0,0,0.04938271604938272,5.8765432098765435,0)" xlink:href="#bu"/><use transform="matrix(0.04938271604938272,0,0,0.04938271604938272,15.753086419753087,0)" xlink:href="#bI"/><use transform="matrix(0.04938271604938272,0,0,0.04938271604938272,20.69135802469136,0)" xlink:href="#bN"/><use transform="matrix(0.04938271604938272,0,0,0.04938271604938272,30.567901234567906,0)" xlink:href="#bF"/><use transform="matrix(0.04938271604938272,0,0,0.04938271604938272,36.44444444444445,0)" xlink:href="#bH"/><use transform="matrix(0.04938271604938272,0,0,0.04938271604938272,46.320987654320994,0)" xlink:href="#bu"/><use transform="matrix(0.04938271604938272,0,0,0.04938271604938272,56.19753086419754,0)" xlink:href="#bx"/></g><g id="an"><use transform="matrix(0.04938271604938272,0,0,0.04938271604938272,0,0)" xlink:href="#bv"/><use transform="matrix(0.04938271604938272,0,0,0.04938271604938272,9.876543209876544,0)" xlink:href="#by"/></g><g id="ao"><use transform="matrix(0.04938271604938272,0,0,0.04938271604938272,0,0)" xlink:href="#bB"/><use transform="matrix(0.04938271604938272,0,0,0.04938271604938272,8.88888888888889,0)" xlink:href="#bA"/><use transform="matrix(0.04938271604938272,0,0,0.04938271604938272,18.765432098765434,0)" xlink:href="#bC"/><use transform="matrix(0.04938271604938272,0,0,0.04938271604938272,27.654320987654323,0)" xlink:href="#bu"/></g><g id="ap"><use transform="matrix(0.04938271604938272,0,0,0.04938271604938272,0,0)" xlink:href="#bu"/><use transform="matrix(0.04938271604938272,0,0,0.04938271604938272,9.876543209876544,0)" xlink:href="#bD"/><use transform="matrix(0.04938271604938272,0,0,0.04938271604938272,18.765432098765434,0)" xlink:href="#bE"/><use transform="matrix(0.04938271604938272,0,0,0.04938271604938272,28.641975308641978,0)" xlink:href="#bF"/><use transform="matrix(0.04938271604938272,0,0,0.04938271604938272,34.51851851851852,0)" xlink:href="#bu"/><use transform="matrix(0.04938271604938272,0,0,0.04938271604938272,44.39506172839506,0)" xlink:href="#bC"/><use transform="matrix(0.04938271604938272,0,0,0.04938271604938272,53.28395061728394,0)" xlink:href="#bC"/><use transform="matrix(0.04938271604938272,0,0,0.04938271604938272,62.172839506172835,0)" xlink:href="#bG"/><use transform="matrix(0.04938271604938272,0,0,0.04938271604938272,66.07407407407408,0)" xlink:href="#bw"/><use transform="matrix(0.04938271604938272,0,0,0.04938271604938272,75.95061728395062,0)" xlink:href="#bH"/></g><g id="aq"><use transform="matrix(0.04938271604938272,0,0,0.04938271604938272,0,0)" xlink:href="#bA"/><use transform="matrix(0.04938271604938272,0,0,0.04938271604938272,9.876543209876544,0)" xlink:href="#bC"/></g><g id="ar"><use transform="matrix(0.04938271604938272,0,0,0.04938271604938272,0,0)" xlink:href="#bG"/><use transform="matrix(0.04938271604938272,0,0,0.04938271604938272,3.901234567901235,0)" xlink:href="#bI"/><use transform="matrix(0.04938271604938272,0,0,0.04938271604938272,8.839506172839506,0)" xlink:href="#bC"/></g><g id="as"><use transform="matrix(0.04938271604938272,0,0,0.04938271604938272,0,0)" xlink:href="#bw"/><use transform="matrix(0.04938271604938272,0,0,0.04938271604938272,9.876543209876544,0)" xlink:href="#bO"/><use transform="matrix(0.04938271604938272,0,0,0.04938271604938272,22.66666666666667,0)" xlink:href="#bH"/></g><g id="at"><use transform="matrix(0.04938271604938272,0,0,0.04938271604938272,0,0)" xlink:href="#bF"/><use transform="matrix(0.04938271604938272,0,0,0.04938271604938272,5.8765432098765435,0)" xlink:href="#bu"/><use transform="matrix(0.04938271604938272,0,0,0.04938271604938272,15.753086419753087,0)" xlink:href="#bI"/><use transform="matrix(0.04938271604938272,0,0,0.04938271604938272,20.69135802469136,0)" xlink:href="#bN"/><use transform="matrix(0.04938271604938272,0,0,0.04938271604938272,30.567901234567906,0)" xlink:href="#bF"/><use transform="matrix(0.04938271604938272,0,0,0.04938271604938272,36.44444444444445,0)" xlink:href="#bH"/></g><g id="au"><use transform="matrix(0.04938271604938272,0,0,0.04938271604938272,0,0)" xlink:href="#cq"/><use transform="matrix(0.04938271604938272,0,0,0.04938271604938272,8.88888888888889,0)" xlink:href="#bA"/><use transform="matrix(0.04938271604938272,0,0,0.04938271604938272,18.765432098765434,0)" xlink:href="#bJ"/><use transform="matrix(0.04938271604938272,0,0,0.04938271604938272,22.666666666666668,0)" xlink:href="#bN"/><use transform="matrix(0.04938271604938272,0,0,0.04938271604938272,32.543209876543216,0)" xlink:href="#bu"/><use transform="matrix(0.04938271604938272,0,0,0.04938271604938272,42.41975308641976,0)" xlink:href="#bK"/></g><path fill="#0c7cba" d="M24 0v-248h195v40H76v63h132v40H76v65h150V0H24" id="cs"/><path fill="#0c7cba" d="M144 0l-44-69L55 0H2l70-98-66-92h53l41 62 40-62h54l-67 91 71 99h-54" id="ct"/><path fill="#0c7cba" d="M135-194c53 0 70 44 70 98 0 56-19 98-73 100-31 1-45-17-59-34 3 33 2 69 2 105H25l-1-265h48c2 10 0 23 3 31 11-24 29-35 60-35zM114-30c33 0 39-31 40-66 0-38-9-64-40-64-56 0-55 130 0 130" id="cu"/><path fill="#0c7cba" d="M135-150c-39-12-60 13-60 57V0H25l-1-190h47c2 13-1 29 3 40 6-28 27-53 61-41v41" id="cv"/><path fill="#0c7cba" d="M185-48c-13 30-37 53-82 52C43 2 14-33 14-96s30-98 90-98c62 0 83 45 84 108H66c0 31 8 55 39 56 18 0 30-7 34-22zm-45-69c5-46-57-63-70-21-2 6-4 13-4 21h74" id="cw"/><path fill="#0c7cba" d="M137-138c1-29-70-34-71-4 15 46 118 7 119 86 1 83-164 76-172 9l43-7c4 19 20 25 44 25 33 8 57-30 24-41C81-84 22-81 20-136c-2-80 154-74 161-7" id="cx"/><path fill="#0c7cba" d="M25-224v-37h50v37H25zM25 0v-190h50V0H25" id="cy"/><path fill="#0c7cba" d="M110-194c64 0 96 36 96 99 0 64-35 99-97 99-61 0-95-36-95-99 0-62 34-99 96-99zm-1 164c35 0 45-28 45-65 0-40-10-65-43-65-34 0-45 26-45 65 0 36 10 65 43 65" id="cz"/><path fill="#0c7cba" d="M135-194c87-1 58 113 63 194h-50c-7-57 23-157-34-157-59 0-34 97-39 157H25l-1-190h47c2 12-1 28 3 38 12-26 28-41 61-42" id="cA"/><g id="av"><use transform="matrix(0.05555555555555555,0,0,0.05555555555555555,0,0)" xlink:href="#cs"/><use transform="matrix(0.05555555555555555,0,0,0.05555555555555555,13.333333333333332,0)" xlink:href="#ct"/><use transform="matrix(0.05555555555555555,0,0,0.05555555555555555,24.444444444444443,0)" xlink:href="#cu"/><use transform="matrix(0.05555555555555555,0,0,0.05555555555555555,36.61111111111111,0)" xlink:href="#cv"/><use transform="matrix(0.05555555555555555,0,0,0.05555555555555555,44.388888888888886,0)" xlink:href="#cw"/><use transform="matrix(0.05555555555555555,0,0,0.05555555555555555,55.5,0)" xlink:href="#cx"/><use transform="matrix(0.05555555555555555,0,0,0.05555555555555555,66.61111111111111,0)" xlink:href="#cx"/><use transform="matrix(0.05555555555555555,0,0,0.05555555555555555,77.72222222222223,0)" xlink:href="#cy"/><use transform="matrix(0.05555555555555555,0,0,0.05555555555555555,83.27777777777779,0)" xlink:href="#cz"/><use transform="matrix(0.05555555555555555,0,0,0.05555555555555555,95.44444444444446,0)" xlink:href="#cA"/><use transform="matrix(0.05555555555555555,0,0,0.05555555555555555,107.61111111111113,0)" xlink:href="#cx"/></g></defs></g></svg>